# Blender v2.76 (sub 0) OBJ File: ''
# www.blender.org
mtllib manipX.mtl
o Cube
v 3.260704 0.415450 -0.415450
v 3.260704 -0.415450 -0.415450
v 3.260704 0.415450 0.415450
v 3.260704 -0.415450 0.415450
v -0.415450 0.415450 -0.415450
v -0.415450 -0.415450 -0.415450
v -0.415450 0.415450 0.415450
v -0.415450 -0.415450 0.415450
v 4.519352 0.229788 -0.415450
v 4.519352 -0.229788 -0.415450
v 4.519352 0.229788 0.415450
v 4.519352 -0.229788 0.415450
v 3.260704 -1.071980 -0.415450
v 3.260704 -1.071980 0.415450
v 3.260704 1.071980 0.415450
v 3.260704 1.071980 -0.415450
v 3.685936 -1.071980 -0.415450
v 3.685936 -1.071980 0.415450
v 3.685936 1.071980 0.415450
v 3.685936 1.071980 -0.415450
vn 0.000000 0.000000 -1.000000
vn 1.000000 0.000000 0.000000
vn 0.000000 0.000000 1.000000
vn 0.000000 -1.000000 0.000000
vn 0.000000 1.000000 0.000000
vn -1.000000 0.000000 0.000000
vn -0.710800 0.703400 0.000000
vn -0.710800 -0.703400 0.000000
usemtl None
s off
f 3//1 11//1 12//1
f 8//1 7//1 3//1
f 6//2 5//2 7//2
f 2//3 1//3 5//3
f 3//4 7//4 5//4
f 8//5 4//5 2//5
f 12//6 11//6 9//6
f 2//3 10//3 9//3
f 2//3 13//3 17//3
f 10//7 17//7 18//7
f 16//4 20//4 19//4
f 14//5 18//5 17//5
f 3//1 15//1 19//1
f 1//2 16//2 15//2
f 4//2 14//2 13//2
f 1//3 9//3 20//3
f 4//1 12//1 18//1
f 11//8 19//8 20//8
f 4//1 3//1 12//1
f 4//1 8//1 3//1
f 8//2 6//2 7//2
f 6//3 2//3 5//3
f 1//4 3//4 5//4
f 6//5 8//5 2//5
f 10//6 12//6 9//6
f 1//3 2//3 9//3
f 10//3 2//3 17//3
f 12//7 10//7 18//7
f 15//4 16//4 19//4
f 13//5 14//5 17//5
f 11//1 3//1 19//1
f 3//2 1//2 15//2
f 2//2 4//2 13//2
f 16//3 1//3 20//3
f 14//1 4//1 18//1
f 9//8 11//8 20//8
